#!OML:ASF F:\VICON\USERDATA\INSTALL\rory3\rory3.ASF
:FULLY-SPECIFIED
:DEGREES
145
root 2.90893 15.585 4.02696 -78.068 -45.4718 99.2028
lowerback 13.6629 -8.97457 -2.32983
upperback 0.70725 -12.4144 -0.817784
thorax -6.47948 -6.04149 2.728
lowerneck -4.11871 9.02582 7.4623
upperneck 44.2165 2.33323 11.8223
head 17.0327 2.88082 4.19395
rclavicle -6.36111e-014 -3.81667e-014
rhumerus 36.7203 -53.3981 -13.3032
rradius 20.6466
rwrist 19.055
rhand 5.74994 -2.85651
rfingers 7.12502
rthumb 31.085 -30.2418
lclavicle -6.36111e-014 -3.81667e-014
lhumerus 1.50668 -35.419 2.63335
lradius 19.4392
lwrist -30.9686
lhand 16.8276 35.4279
lfingers 7.12502
lthumb 41.5691 60.1607
rfemur -97.1097 -56.467 24.1045
rtibia 69.5427
rfoot -45.4128 -38.1588
rtoes 37.0212
lfemur -10.3184 -30.1363 36.2905
ltibia 15.2783
lfoot -69.1378 -15.3285
ltoes 53.434
146
root 2.9075 15.5899 3.98631 -78.2597 -45.28 99.0757
lowerback 13.9226 -8.77107 -2.06416
upperback 0.793263 -12.1543 -1.26019
thorax -6.69642 -5.92531 2.13789
lowerneck -4.5882 8.55373 7.87311
upperneck 44.1152 1.36387 12.0272
head 17.1947 2.56195 4.09959
rclavicle -2.22639e-014 1.27222e-014
rhumerus 37.0848 -54.6655 -14.7142
rradius 20.0349
rwrist 20.0947
rhand 1.4551 -2.25218
rfingers 7.12502
rthumb 26.9834 -30.3451
lclavicle -2.22639e-014 1.27222e-014
lhumerus 4.13498 -33.2304 1.85176
lradius 19.5783
lwrist -32.6429
lhand 16.4943 35.5072
lfingers 7.12502
lthumb 41.2563 60.3416
rfemur -95.9898 -56.3827 23.012
rtibia 69.5578
rfoot -45.9361 -38.2144
rtoes 37.383
lfemur -10.2242 -31.0143 36.3962
ltibia 14.9492
lfoot -70.1729 -15.8942
ltoes 53.4475
147
root 2.89801 15.5932 3.96316 -78.2434 -45.5413 98.7831
lowerback 14.2923 -9.14651 -1.94334
upperback 0.645502 -12.6093 -0.939001
thorax -6.99325 -6.12589 2.56437
lowerneck -4.63895 8.5889 7.19175
upperneck 44.1406 1.57484 11.9912
head 17.151 2.52949 4.22606
rclavicle -1.20861e-013 -8.90555e-014
rhumerus 42.5843 -55.9458 -21.0707
rradius 19.4004
rwrist 22.3239
rhand -2.26293 -1.31849
rfingers 7.12502
rthumb 23.4212 -29.9132
lclavicle -1.20861e-013 -8.90555e-014
lhumerus 3.97798 -29.8037 3.22167
lradius 19.2013
lwrist -35.5455
lhand 15.8674 34.9339
lfingers 7.12502
lthumb 40.6675 59.955
rfemur -95.1848 -56.4006 22.7023
rtibia 69.5462
rfoot -46.3247 -38.2203
rtoes 37.6229
lfemur -10.4325 -31.3549 36.9692
ltibia 14.9111
lfoot -70.8443 -16.9742
ltoes 53.4332
148
root 2.88992 15.6007 3.94135 -78.2435 -45.8152 98.5208
lowerback 14.8298 -9.81832 -2.07703
upperback 0.282479 -13.4783 -0.376999
thorax -7.47457 -6.49917 3.50154
lowerneck -4.11483 8.9053 5.90986
upperneck 44.1346 2.37362 12.0077
head 16.8467 2.63697 4.51889
rclavicle 4.45278e-014 4.13472e-014
rhumerus 49.4962 -55.916 -28.9089
rradius 18.7705
rwrist 24.4555
rhand -6.06009 -0.172254
rfingers 7.12502
rthumb 19.7746 -29.1864
lclavicle 4.45278e-014 4.13472e-014
lhumerus 2.36799 -26.1742 5.27633
lradius 18.767
lwrist -38.9413
lhand 14.8606 34.4552
lfingers 7.12502
lthumb 39.7204 59.765
rfemur -94.0928 -56.2828 22.0926
rtibia 69.4917
rfoot -46.8276 -38.2808
rtoes 37.6392
lfemur -10.8348 -31.4498 37.4512
ltibia 15.1504
lfoot -71.2627 -17.591
ltoes 53.3524
149
root 2.86538 15.6188 3.93225 -78.7037 -45.5456 98.8758
lowerback 14.7269 -9.88543 -2.1376
upperback 0.306421 -13.596 -0.548928
thorax -7.41551 -6.56351 3.35759
lowerneck -4.10849 8.70596 5.20911
upperneck 43.4004 2.12858 12.6681
head 16.3811 2.48736 4.8203
rclavicle -6.99722e-014 -2.8625e-014
rhumerus 52.8898 -56.4843 -33.7738
rradius 18.2799
rwrist 26.2776
rhand -9.9873 1.18034
rfingers 7.12502
rthumb 15.9959 -28.1793
lclavicle -6.99722e-014 -2.8625e-014
lhumerus 2.95764 -23.6875 6.19032
lradius 18.6388
lwrist -40.8106
lhand 13.4215 34.2406
lfingers 7.12502
lthumb 38.3638 59.9399
rfemur -93.1361 -56.1002 21.0258
rtibia 69.2957
rfoot -46.8991 -38.1944
rtoes 37.7192
lfemur -10.9071 -32.4403 36.8697
ltibia 15.5704
lfoot -72.0081 -18.8249
ltoes 53.3926
150
root 2.83048 15.6406 3.93491 -79.5062 -44.7547 99.3643
lowerback 14.7684 -9.99697 -2.79869
upperback 0.32779 -13.8873 -0.752851
thorax -7.29862 -6.69765 3.53736
lowerneck -4.7881 8.69454 5.12657
upperneck 44.6389 2.22643 11.5622
head 17.2683 2.3895 4.50929
rclavicle 7.63333e-014 -5.725e-014
rhumerus 56.3504 -56.4705 -38.6592
rradius 17.9128
rwrist 28.0341
rhand -13.3458 2.70729
rfingers 7.12502
rthumb 12.7598 -26.8828
lclavicle 7.63333e-014 -5.725e-014
lhumerus 3.05761 -22.318 7.2747
lradius 18.5262
lwrist -41.4929
lhand 11.8852 33.7903
lfingers 7.12502
lthumb 36.9122 59.8775
rfemur -92.4103 -56.4251 19.7985
rtibia 69.0415
rfoot -46.4153 -37.7729
rtoes 37.657
lfemur -10.7181 -33.5132 35.3901
ltibia 15.9501
lfoot -72.6799 -19.9579
ltoes 53.4898
151
root 2.81792 15.6737 3.90134 -79.8324 -44.6591 99.4444
lowerback 14.9413 -10.0508 -2.93903
upperback 0.295095 -13.9954 -0.793847
thorax -7.40037 -6.74072 3.62321
lowerneck -5.31473 8.49797 4.90603
upperneck 45.2653 1.95308 11.1058
head 17.7985 2.17808 4.38728
rclavicle 1.90833e-013 -3.65764e-014
rhumerus 58.3055 -56.4805 -42.3026
rradius 17.5624
rwrist 29.3574
rhand -16.0907 4.41478
rfingers 7.12502
rthumb 10.1126 -25.3222
lclavicle 1.90833e-013 -3.65764e-014
lhumerus 3.76727 -23.066 7.81784
lradius 18.6873
lwrist -40.0882
lhand 11.7319 33.4051
lfingers 7.12502
lthumb 36.7671 59.5294
rfemur -90.4574 -55.8847 18.1182
rtibia 68.6721
rfoot -47.2406 -37.88
rtoes 38.0097
lfemur -11.0489 -32.8259 34.8948
ltibia 16.2693
lfoot -72.359 -20.0946
ltoes 53.5631
152
root 2.82203 15.7012 3.86403 -79.6405 -45.1457 99.37
lowerback 14.8133 -9.7973 -2.52179
upperback 0.257268 -13.5854 -0.839653
thorax -7.50265 -6.55069 3.27622
lowerneck -5.80377 7.87836 4.99752
upperneck 45.302 0.859631 11.1588
head 18.0534 1.74231 4.2651
rclavicle 0 8.5875e-014
rhumerus 59.2486 -57.5586 -45.3208
rradius 17.1592
rwrist 31.1154
rhand -18.3348 6.59083
rfingers 7.12502
rthumb 7.94718 -23.2398
lclavicle 0 8.5875e-014
lhumerus 5.68872 -22.4773 8.37955
lradius 18.8668
lwrist -40.4805
lhand 13.6472 31.9939
lfingers 7.12502
lthumb 38.5768 57.6338
rfemur -89.0683 -54.9225 17.4488
rtibia 68.2728
rfoot -48.468 -38.2742
rtoes 38.7796
lfemur -11.8401 -31.0773 35.3083
ltibia 16.4697
lfoot -71.5163 -20.1682
ltoes 53.3227
153
root 2.82075 15.7366 3.82593 -79.499 -45.1313 99.2683
lowerback 14.9501 -10.3561 -2.83211
upperback -0.145221 -14.3603 -0.540344
thorax -7.81877 -6.88421 3.95027
lowerneck -5.57836 8.09533 3.88174
upperneck 45.618 1.3777 11.1064
head 18.0665 1.73297 4.52241
rclavicle 2.13097e-013 -2.54444e-014
rhumerus 62.7225 -56.1669 -50.777
rradius 16.5784
rwrist 32.5081
rhand -20.7803 8.30825
rfingers 7.12502
rthumb 5.58651 -21.5981
lclavicle 2.13097e-013 -2.54444e-014
lhumerus 4.30725 -18.2004 10.6369
lradius 18.4185
lwrist -44.6438
lhand 12.9312 31.6083
lfingers 7.12502
lthumb 37.9009 57.4344
rfemur -87.7904 -54.3309 16.4438
rtibia 67.7921
rfoot -49.3835 -38.5578
rtoes 39.648
lfemur -12.4207 -29.8006 35.0226
ltibia 16.2599
lfoot -70.6738 -19.5088
ltoes 53.1257
154
root 2.79593 15.7821 3.79724 -79.574 -45.2271 99.1654
lowerback 14.5335 -10.1484 -2.28671
upperback 0.110307 -14.0295 -1.03544
thorax -7.59152 -6.77575 3.01055
lowerneck -6.286 7.35143 4.44858
upperneck 45.5567 0.200551 10.7417
head 18.3631 1.30361 4.09757
rclavicle -2.8625e-014 0
rhumerus 60.9024 -56.791 -50.995
rradius 15.9762
rwrist 32.1506
rhand -23.4084 9.73212
rfingers 7.12502
rthumb 3.04873 -20.2258
lclavicle -2.8625e-014 0
lhumerus 6.34276 -19.0329 10.7974
lradius 18.6004
lwrist -43.2415
lhand 12.296 32.0388
lfingers 7.12502
lthumb 37.3006 58.0249
rfemur -86.4176 -54.1484 15.7028
rtibia 67.2376
rfoot -49.8108 -38.6686
rtoes 39.9914
lfemur -12.7139 -30.0171 34.6136
ltibia 16.0924
lfoot -70.4095 -19.3673
ltoes 53.1149
155
root 2.76143 15.842 3.77158 -79.879 -45.9583 98.8691
lowerback 14.556 -10.0941 -1.1553
upperback 0.462717 -13.7833 -1.28362
thorax -7.56052 -6.70512 2.12053
lowerneck -6.97385 6.6529 4.5986
upperneck 45.3412 -0.798969 10.5039
head 18.5022 0.900238 3.80443
rclavicle -5.40694e-014 -4.45278e-014
rhumerus 59.3383 -57.1081 -51.316
rradius 15.235
rwrist 31.5179
rhand -24.8024 10.5761
rfingers 7.12502
rthumb 1.70238 -19.3969
lclavicle -5.40694e-014 -4.45278e-014
lhumerus 7.68276 -17.5144 12.0006
lradius 18.6442
lwrist -44.0706
lhand 12.0795 31.5456
lfingers 7.12502
lthumb 37.0959 57.5852
rfemur -84.277 -54.0623 15.198
rtibia 66.5913
rfoot -50.1772 -38.6048
rtoes 40.0081
lfemur -12.773 -30.9201 34.6865
ltibia 15.9746
lfoot -71.1781 -20.3564
ltoes 53.3134
156
root 2.7412 15.8946 3.74193 -79.6548 -46.5098 98.9902
lowerback 14.2311 -10.7877 -1.094
upperback -0.0369799 -14.6115 -0.563004
thorax -7.72333 -7.0753 2.97029
lowerneck -6.60457 6.9786 2.81188
upperneck 45.4709 0.100583 10.5914
head 18.301 0.944212 4.29081
rclavicle -8.26944e-014 1.30403e-013
rhumerus 60.2082 -54.3537 -53.6084
rradius 14.4935
rwrist 30.4759
rhand -26.6109 12.0207
rfingers 7.12502
rthumb -0.0443217 -17.959
lclavicle -8.26944e-014 1.30403e-013
lhumerus 5.20198 -11.8 15.3507
lradius 18.1473
lwrist -49.0958
lhand 11.186 30.3988
lfingers 7.12502
lthumb 36.2503 56.6534
rfemur -83.5968 -53.4313 15.4842
rtibia 65.8903
rfoot -50.7103 -38.7347
rtoes 40.3011
lfemur -13.4 -31.1107 34.8317
ltibia 15.9884
lfoot -71.9749 -20.8867
ltoes 53.5178
157
root 2.73666 15.9472 3.68993 -79.4074 -46.4847 98.8096
lowerback 14.3192 -11.5364 -1.85046
upperback -0.517865 -15.6732 0.0575891
thorax -7.87586 -7.53152 4.22966
lowerneck -6.52609 7.35509 1.12722
upperneck 45.7707 1.05101 10.5338
head 18.2739 1.01056 4.72065
rclavicle -1.09729e-013 -5.40694e-014
rhumerus 61.7549 -51.8922 -57.0155
rradius 14.1253
rwrist 30.4487
rhand -27.6719 13.8987
rfingers 7.12502
rthumb -1.06905 -16.0784
lclavicle -1.09729e-013 -5.40694e-014
lhumerus 2.85982 -7.66481 17.7009
lradius 17.7142
lwrist -52.4903
lhand 9.92217 29.875
lfingers 7.12502
lthumb 35.0525 56.4188
rfemur -82.2946 -52.9384 14.725
rtibia 64.9873
rfoot -51.1642 -39.2355
rtoes 40.408
lfemur -14.7497 -30.4665 34.3192
ltibia 16.8797
lfoot -71.2186 -21.2706
ltoes 53.6306
